<?xml version="1.0" encoding="UTF-8" standalone="no"?>
<!-- Created with Inkscape (http://www.inkscape.org/) -->

<svg
   xmlns:dc="http://purl.org/dc/elements/1.1/"
   xmlns:cc="http://creativecommons.org/ns#"
   xmlns:rdf="http://www.w3.org/1999/02/22-rdf-syntax-ns#"
   xmlns:svg="http://www.w3.org/2000/svg"
   xmlns="http://www.w3.org/2000/svg"
   xmlns:sodipodi="http://sodipodi.sourceforge.net/DTD/sodipodi-0.dtd"
   xmlns:inkscape="http://www.inkscape.org/namespaces/inkscape"
   id="svg4190"
   version="1.1"
   inkscape:version="0.91 r13725"
   width="700"
   height="699.99994"
   viewBox="0 0 700 699.99994"
   sodipodi:docname="hidraulica.svg">
  <metadata
     id="metadata4196">
    <rdf:RDF>
      <cc:Work
         rdf:about="">
        <dc:format>image/svg+xml</dc:format>
        <dc:type
           rdf:resource="http://purl.org/dc/dcmitype/StillImage" />
        <dc:title></dc:title>
      </cc:Work>
    </rdf:RDF>
  </metadata>
  <defs
     id="defs4194" />
  <sodipodi:namedview
     pagecolor="#ffffff"
     bordercolor="#666666"
     borderopacity="1"
     objecttolerance="10"
     gridtolerance="10"
     guidetolerance="10"
     inkscape:pageopacity="0"
     inkscape:pageshadow="2"
     inkscape:window-width="1920"
     inkscape:window-height="1056"
     id="namedview4192"
     showgrid="false"
     showguides="true"
     inkscape:guide-bbox="true"
     fit-margin-top="0"
     fit-margin-left="0"
     fit-margin-right="0"
     fit-margin-bottom="0"
     inkscape:zoom="0.5"
     inkscape:cx="726.51989"
     inkscape:cy="475.2882"
     inkscape:window-x="0"
     inkscape:window-y="24"
     inkscape:window-maximized="1"
     inkscape:current-layer="svg4190" />
  <g
     id="g4311"
     transform="translate(619.65625,-645.43164)">
    <path
       sodipodi:nodetypes="ccccssscccssccscccsscccccccsccccccccccccccccscccccssccsssssccsscccsccssssssccccccccssssscsssssc"
       inkscape:connector-curvature="0"
       style="opacity:1;fill:#ffffff;fill-opacity:1;fill-rule:nonzero;stroke:none;stroke-width:0;stroke-miterlimit:4;stroke-dasharray:none;stroke-opacity:1"
       d="m -275.27202,756.32828 c 5.43391,1e-5 8.64607,3.66386 9.12891,10.41211 l 0.32422,4.55469 1.67383,-1.13672 c 1.54368,-1.04874 4.41566,-1.15268 37.19336,-1.33398 23.89604,-0.13218 36.28471,0.0298 37.85937,0.49023 1.28736,0.37641 3.23167,1.6976 4.32031,2.9375 1.9067,2.17161 1.98052,2.4711 1.97852,8.15235 0,6.66523 -1.03794,9.23844 -4.41797,10.98632 -2.81126,1.45383 -74.66027,1.50337 -76.57813,0.0527 -0.68328,-0.51681 -1.45865,-0.94974 -1.72265,-0.96094 -0.264,-0.0112 -0.47852,5.73546 -0.47852,12.76953 l 0,12.78711 3.07813,1.5625 c 1.69434,0.85859 4.17202,2.76602 5.5039,4.24024 4.39512,4.86489 4.50158,5.40336 4.85743,24.61914 l 0.32031,17.27929 8.31836,0.32032 c 7.71168,0.2966 8.57097,0.45862 11.73437,2.21093 4.06999,2.25449 6.14752,4.57477 8.3418,9.31055 1.48859,3.21274 1.65355,4.4277 1.89258,13.91992 l 0.26172,10.39844 48.54297,0 48.54296,0 0.18164,-23.51953 0.1836,-23.51953 1.98437,-4.18945 c 2.42586,-5.11923 5.24556,-8.42388 9.14258,-10.71485 2.86349,-1.68339 3.29391,-1.74177 14.314464,-1.94726 l 11.36132,-0.21289 -0.1621,101.65236 -0.1621,101.65244 -10.97071,-0.082 c -10.209934,-0.076 -11.209294,-0.1894 -14.400404,-1.6562 -4.8768,-2.2418 -7.23134,-4.4678 -9.4707,-8.9492 l -1.95703,-3.9161 0,-26.45704 0,-26.459 -104.96094,0 -104.95899,0 0,23.6973 0,23.69924 5.72657,-0.092 c 6.6464,-0.1061 10.16013,1.1802 13.44531,4.9219 4.01494,4.5727 5.37017,8.2677 5.66406,15.4473 0.14755,3.6046 0.0794,7.5653 -0.15234,8.8007 l -0.42188,2.2461 -70.35937,0 -70.35938,0 -0.45898,-1.7617 c -0.25348,-0.9681 -0.47694,-4.5007 -0.49414,-7.8515 -0.0289,-5.6314 0.12808,-6.417 2.08008,-10.3829 3.71124,-7.5403 8.9312,-10.7002 18.52929,-11.2187 l 5.91992,-0.3203 0,-42.99424 c 0,-27.7142 0.24267,-44.347 0.6836,-46.7949 0.37623,-2.0886 1.8182,-6.1574 3.20312,-9.043 4.21367,-8.7795 11.81735,-15.26075 21.71289,-18.50585 3.17248,-1.04037 6.84509,-1.17632 37.20508,-1.37696 l 33.6875,-0.22265 0.32227,-10.36328 c 0.17882,-5.71734 0.68617,-11.41967 1.1289,-12.7168 1.29481,-3.79361 5.1133,-8.23015 8.9375,-10.38477 3.3117,-1.86586 4.01219,-2.00167 11.83985,-2.30273 l 8.32031,-0.32031 0.32031,-17.28125 c 0.35585,-19.21578 0.46229,-19.7523 4.85742,-24.61719 1.33188,-1.47422 3.80568,-3.3836 5.5,-4.24219 l 3.08204,-1.56054 0,-12.78907 c 0,-7.03407 -0.21647,-12.78073 -0.48047,-12.76953 -0.264,0.0112 -1.03938,0.44413 -1.72266,0.96094 -1.0588,0.80083 -6.66472,0.9375 -37.95117,0.9375 -40.51073,0 -39.26154,0.12237 -41.79297,-4.0293 -1.91696,-3.14392 -1.79772,-12.24513 0.19922,-15.23437 3.03341,-4.54074 1.83062,-4.41207 41.45312,-4.41407 33.18092,-10e-4 35.69549,0.0767 37.83985,1.16993 l 2.29883,1.17187 0.3164,-4.42969 c 0.47337,-6.61593 3.72686,-10.28515 9.11914,-10.28515 l 0,-0.002 z m -105.79883,310.55082 c 0.608,-0.074 1.19379,1.0354 1.52735,3.2598 0.82019,5.4694 4.72818,20.329 7.30078,27.7636 4.93332,14.257 9.51304,23.5786 21.76758,44.295 8.76266,14.8133 10.48309,18.1945 12.85156,25.2715 3.55452,10.6209 3.89521,23.3051 0.93945,34.9023 -3.9414,15.4644 -15.45102,26.7587 -31.08398,30.5039 -6.17343,1.4789 -17.04609,2.1094 -22.6582,1.3125 -21.07008,-2.9918 -35.78996,-15.0931 -41.29297,-33.9473 -1.9343,-6.6272 -2.48397,-22.5255 -1.02344,-29.5879 2.18271,-10.5544 6.24322,-18.5454 17.28906,-34.0136 19.23196,-26.9318 26.54243,-41.8448 33.03516,-67.4004 0.38795,-1.527 0.87476,-2.3014 1.34765,-2.3594 z"
       id="path4303" />
    <path
       id="path4288"
       d="m -269.65625,645.43164 a 350,350 0 0 0 -350,350 350,350 0 0 0 350,349.99996 350,350 0 0 0 350,-349.99996 350,350 0 0 0 -350,-350 z m -5.61719,110.89648 c 5.43391,10e-6 8.64607,3.66386 9.12891,10.41211 l 0.32422,4.55469 1.67383,-1.13672 c 1.54368,-1.04874 4.41566,-1.15268 37.19336,-1.33398 23.89604,-0.13218 36.28471,0.0298 37.85937,0.49023 1.28736,0.37641 3.23167,1.6976 4.32031,2.9375 1.9067,2.17161 1.98052,2.4711 1.97852,8.15235 0,6.66523 -1.03794,9.23844 -4.41797,10.98632 -2.81126,1.45383 -74.66027,1.50337 -76.57813,0.0527 -0.68328,-0.51681 -1.45865,-0.94974 -1.72265,-0.96094 -0.264,-0.0112 -0.47852,5.73546 -0.47852,12.76953 l 0,12.78711 3.07813,1.5625 c 1.69434,0.85859 4.17202,2.76602 5.5039,4.24024 4.39512,4.86489 4.50158,5.40336 4.85743,24.61914 l 0.32031,17.27929 8.31836,0.32032 c 7.71168,0.2966 8.57097,0.45862 11.73437,2.21093 4.06999,2.25449 6.14752,4.57477 8.3418,9.31055 1.48859,3.21274 1.65355,4.4277 1.89258,13.91992 l 0.26172,10.39844 48.54297,0 48.54296,0 0.18164,-23.51953 0.1836,-23.51953 1.98437,-4.18945 c 2.42586,-5.11923 5.24556,-8.42388 9.14258,-10.71485 2.86349,-1.68339 3.29391,-1.74177 14.314454,-1.94726 l 11.361328,-0.21289 -0.162109,101.65234 -0.162109,101.65242 -10.970703,-0.082 c -10.209921,-0.076 -11.209281,-0.1894 -14.400391,-1.6562 -4.8768,-2.2418 -7.23134,-4.4678 -9.4707,-8.9492 l -1.95703,-3.9161 0,-26.45702 0,-26.45899 -104.96094,0 -104.95899,0 0,23.69727 0,23.69924 5.72657,-0.092 c 6.6464,-0.1061 10.16013,1.1802 13.44531,4.9219 4.01494,4.5727 5.37017,8.2677 5.66406,15.4473 0.14755,3.6046 0.0794,7.5653 -0.15234,8.8007 l -0.42188,2.2461 -70.35937,0 -70.35938,0 -0.45898,-1.7617 c -0.25348,-0.9681 -0.47694,-4.5007 -0.49414,-7.8515 -0.0289,-5.6314 0.12808,-6.417 2.08008,-10.3829 3.71124,-7.5403 8.9312,-10.7002 18.52929,-11.2187 l 5.91992,-0.3203 0,-42.9942 c 0,-27.71425 0.24267,-44.34707 0.6836,-46.79492 0.37623,-2.08864 1.8182,-6.15737 3.20312,-9.04297 4.21367,-8.77953 11.81735,-15.26076 21.71289,-18.50586 3.17248,-1.04037 6.84509,-1.17632 37.20508,-1.37696 l 33.6875,-0.22265 0.32227,-10.36328 c 0.17882,-5.71734 0.68617,-11.41967 1.1289,-12.7168 1.29481,-3.79361 5.1133,-8.23015 8.9375,-10.38477 3.3117,-1.86586 4.01219,-2.00167 11.83985,-2.30273 l 8.32031,-0.32031 0.32031,-17.28125 c 0.35585,-19.21578 0.46229,-19.7523 4.85742,-24.61719 1.33188,-1.47422 3.80568,-3.3836 5.5,-4.24219 l 3.08204,-1.56054 0,-12.78907 c 0,-7.03407 -0.21647,-12.78073 -0.48047,-12.76953 -0.264,0.0112 -1.03938,0.44413 -1.72266,0.96094 -1.0588,0.80083 -6.66472,0.9375 -37.95117,0.9375 -40.51073,0 -39.26154,0.12237 -41.79297,-4.0293 -1.91696,-3.14392 -1.79772,-12.24513 0.19922,-15.23437 3.03341,-4.54074 1.83062,-4.41207 41.45312,-4.41407 33.18092,-10e-4 35.69549,0.0767 37.83985,1.16993 l 2.29883,1.17187 0.3164,-4.42969 c 0.47337,-6.61593 3.72686,-10.28515 9.11914,-10.28515 l 0,-0.002 z m -105.79883,310.55078 c 0.608,-0.074 1.19379,1.0354 1.52735,3.2598 0.82019,5.4694 4.72818,20.329 7.30078,27.7636 4.93332,14.257 9.51304,23.5786 21.76758,44.295 8.76266,14.8133 10.48309,18.1945 12.85156,25.2715 3.55452,10.6209 3.89521,23.3051 0.93945,34.9023 -3.9414,15.4644 -15.45102,26.7587 -31.08398,30.5039 -6.17343,1.4789 -17.04609,2.1094 -22.6582,1.3125 -21.07008,-2.9918 -35.78996,-15.0931 -41.29297,-33.9473 -1.9343,-6.6272 -2.48397,-22.5255 -1.02344,-29.5879 2.18271,-10.5544 6.24322,-18.5454 17.28906,-34.0136 19.23196,-26.9318 26.54243,-41.8448 33.03516,-67.4004 0.38795,-1.527 0.87476,-2.3014 1.34765,-2.3594 z"
       style="opacity:1;fill:#3a9aba;fill-opacity:1;fill-rule:nonzero;stroke:none;stroke-width:0;stroke-miterlimit:4;stroke-dasharray:none;stroke-opacity:1"
       inkscape:connector-curvature="0" />
    <path
       id="path4301"
       d="m -184.95703,772.04297 -0.0273,0.002 c 0.0654,0.0691 0.15053,0.13822 0.21094,0.20703 1.9067,2.17161 1.98052,2.4711 1.97852,8.15235 0,6.66523 -1.03794,9.23844 -4.41797,10.98632 -2.81126,1.45384 -74.66027,1.50337 -76.57813,0.0527 -0.68328,-0.51681 -1.45865,-0.94974 -1.72265,-0.96094 -0.264,-0.0112 -0.47852,5.73546 -0.47852,12.76953 l 0,12.78711 3.07813,1.5625 c 1.69434,0.85859 4.17202,2.76602 5.5039,4.24024 4.39512,4.86489 4.50158,5.40336 4.85743,24.61914 l 0.32031,17.27929 8.31836,0.32032 c 7.71168,0.2966 8.57097,0.45862 11.73437,2.21093 4.06999,2.25449 6.14752,4.57477 8.3418,9.31055 1.48859,3.21274 1.65355,4.4277 1.89258,13.91992 l 0.26172,10.39844 48.54297,0 48.54296,0 0.18164,-23.51953 0.1836,-23.51953 1.98437,-4.18945 c 1.65422,-3.49086 3.50107,-6.1244 5.73828,-8.18165 l -68.44726,-68.44726 z m -180.71485,17.62305 -0.14453,0.0137 67.62305,67.62304 0.20117,-10.84179 c 0.35585,-19.21578 0.46229,-19.7523 4.85742,-24.61719 1.33188,-1.47422 3.80568,-3.3836 5.5,-4.24219 l 3.08204,-1.56054 0,-12.78907 c 0,-7.03407 -0.21647,-12.78073 -0.48047,-12.76953 -0.264,0.0112 -1.03938,0.44413 -1.72266,0.96094 -1.0588,0.80083 -6.66472,0.9375 -37.95117,0.9375 -35.63719,0 -38.95835,0.0887 -40.96485,-2.71484 z m 278.60938,46.43945 -0.369141,0.39258 -0.160156,100.95117 -0.162109,101.65238 -10.970703,-0.082 c -10.209921,-0.076 -11.209281,-0.1894 -14.400391,-1.6562 -4.8768,-2.2418 -7.23134,-4.4678 -9.4707,-8.9492 l -1.95703,-3.9161 0,-26.45698 0,-26.45899 -104.96094,0 -104.95899,0 0,23.69727 0,23.6992 5.72657,-0.092 c 6.6464,-0.1061 10.16013,1.1802 13.44531,4.9219 4.01494,4.5727 5.37017,8.2677 5.66406,15.4473 0.14755,3.6046 0.0794,7.5653 -0.15234,8.8007 l -0.42188,2.2461 -70.35937,0 -67.82813,0 -1.86718,0.6817 54.5332,54.5332 c 5.91215,-11.3859 9.74184,-22.2251 13.3125,-36.2793 0.38795,-1.527 0.87476,-2.3014 1.34765,-2.3594 0.608,-0.074 1.19379,1.0354 1.52735,3.2598 0.82019,5.4694 4.72818,20.329 7.30078,27.7636 4.93332,14.257 9.51304,23.5786 21.76758,44.295 8.76266,14.8133 10.48309,18.1945 12.85156,25.2715 3.55452,10.6208 3.89521,23.3051 0.93945,34.9023 -3.9414,15.4644 -15.45102,26.7587 -31.08398,30.5039 -6.17343,1.4789 -17.04609,2.1094 -22.6582,1.3125 -11.85192,-1.6829 -21.69435,-6.2473 -29.01758,-13.2754 l 123.44922,123.4512 a 350,350 0 0 0 26.33984,1.0683 350,350 0 0 0 349.722656,-342.1972 L -87.0625,836.10547 Z m -334.20898,382.93553 -0.01,0.037 0.63867,0.6387 c -0.21367,-0.2215 -0.41994,-0.4498 -0.6289,-0.6758 z"
       style="fill:#2b7087;fill-opacity:1;fill-rule:evenodd;stroke:none;stroke-width:1px;stroke-linecap:butt;stroke-linejoin:miter;stroke-opacity:1"
       inkscape:connector-curvature="0" />
  </g>
</svg>
